<?xml version="1.0" standalone="no"?>
<!DOCTYPE svg PUBLIC "-//W3C//DTD SVG 20010904//EN"
 "http://www.w3.org/TR/2001/REC-SVG-20010904/DTD/svg10.dtd">
<svg version="1.0" xmlns="http://www.w3.org/2000/svg"
 width="360.000000pt" height="360.000000pt" viewBox="0 0 360.000000 360.000000"
 preserveAspectRatio="xMidYMid meet">
<metadata>
Created by potrace 1.11, written by Peter Selinger 2001-2013
</metadata>
<g transform="translate(0.000000,360.000000) scale(0.100000,-0.100000)"
fill="#000000" stroke="none">
<path d="M0 1800 l0 -1800 1800 0 1800 0 0 1800 0 1800 -1800 0 -1800 0 0
-1800z m1888 1399 c127 -62 133 -244 10 -319 l-29 -17 45 -12 c82 -20 76 65
76 -1126 0 -1123 1 -1101 -45 -1119 -22 -8 -258 -8 -280 0 -46 18 -45 -4 -45
1119 0 1191 -6 1106 76 1126 l45 12 -29 17 c-122 75 -117 256 10 319 55 27
110 27 166 0z m-520 -163 c116 -61 138 -219 41 -300 -18 -15 -44 -32 -58 -38
l-26 -10 35 -14 c45 -19 68 -41 91 -86 18 -36 19 -73 19 -935 l-1 -898 -179
-185 -180 -185 0 1082 c0 742 3 1091 11 1110 15 40 48 73 94 94 l39 18 -29 11
c-36 14 -82 55 -101 92 -8 15 -14 51 -14 80 0 103 75 178 178 178 29 0 65 -6
80 -14z m1046 -10 c55 -32 86 -89 86 -155 0 -29 -6 -64 -14 -79 -18 -35 -64
-78 -96 -91 -24 -9 -24 -10 8 -10 40 -1 87 -24 96 -46 8 -22 8 -1818 0 -1840
-14 -36 -58 -45 -209 -45 l-145 0 0 939 0 939 31 26 c21 18 42 26 67 26 l37 0
-30 16 c-69 36 -105 91 -105 163 0 142 151 229 274 157z m506 -441 c85 -44
122 -144 85 -232 -21 -50 -42 -72 -90 -94 l-40 -19 43 0 c35 0 50 -6 73 -29
l29 -29 0 -491 0 -490 -24 -28 -24 -28 -159 0 -158 0 0 523 0 524 28 24 c20
17 41 24 70 24 l42 1 -30 13 c-42 18 -92 78 -105 126 -40 149 121 276 260 205z
m-2098 5 c165 -46 180 -270 23 -341 l-40 -19 47 0 c35 0 54 -6 75 -24 l28 -24
0 -519 0 -518 -158 0 -159 0 -24 28 -24 28 0 480 c0 346 3 486 12 502 18 35
40 46 88 47 l45 0 -43 21 c-145 72 -131 275 23 336 38 15 61 15 107 3z"/>
</g>
</svg>
